<?xml version="1.0" encoding="UTF-8"?>
<svg width="256px" height="256px" viewBox="0 0 256 256" version="1.1" xmlns="http://www.w3.org/2000/svg" xmlns:xlink="http://www.w3.org/1999/xlink">
    <g id="Artboard" stroke="none" stroke-width="1" fill="none" fill-rule="evenodd">
        <circle id="Oval" fill="#F94D00" cx="128" cy="128" r="128"></circle>
        <path d="M103.090909,96.4029851 L103.090909,123.641791 L84,123.641791 L84,201 L46.3636364,201 L46.3636364,123.641791 L33,123.641791 L33,96.4029851 L46.3636364,96.4029851 L46.3636364,93.4067164 C46.3636364,67.5298507 61.0909091,55 84,55 C93.5454545,55 103.636364,56.9067164 108,57.9962715 L102.545455,84.9626866 C99.8181818,84.1455224 95.7272727,83.6007463 93,83.6007463 C85.9090909,83.6007463 84,86.869403 84,91.7723881 L84,96.4029851 L103.090909,96.4029851 Z M154.441691,141.9375 L154.441691,201 L117,201 L117,61 L153.085108,61 L153.085108,115.960938 L154.170374,115.960938 C158.850585,102.5625 170.245883,94.6328125 185.6431,94.6328125 C207.687573,94.6328125 222.067353,111.039062 222,134.007812 L222,201 L184.557833,201 L184.557833,141.9375 C184.625662,131.546875 179.19933,125.257812 169.63542,125.257812 C160.478485,125.257812 154.50952,131.546875 154.441691,141.9375 Z" id="fh" fill="#FFFFFF" fill-rule="nonzero"></path>
    </g>
</svg>