<?xml version="1.0" encoding="UTF-8"?>
<svg width="1024px" height="1024px" viewBox="0 0 1024 1024" version="1.1" xmlns="http://www.w3.org/2000/svg" xmlns:xlink="http://www.w3.org/1999/xlink">
    <g id="Artboard" stroke="none" stroke-width="1" fill="none" fill-rule="evenodd">
        <g id="blob-shape" fill-rule="nonzero">
            <path d="M957.669838,228.158501 C1017.46559,336.11531 1030.42625,451.956606 1020.70576,589.025364 C1010.98526,726.094122 978.583624,884.693592 875.487495,963.235204 C772.391366,1041.47357 598.600748,1039.65407 414.205958,979.307426 C229.811167,918.960782 35.1067633,800.390241 4.47248497,647.249261 C-25.867233,494.411531 108.157735,307.306611 248.957591,180.245085 C389.462887,53.1835595 537.037631,-13.8345723 663.99315,2.8441483 C790.948669,19.5228689 897.579522,119.898442 957.669838,228.158501 Z" id="Path" fill="#F94D00"></path>
            <path d="M466.991458,355.373251 L466.991458,469.625519 L389.561725,469.625519 L389.561725,794.101961 L236.914538,794.101961 L236.914538,469.625519 L182.713725,469.625519 L182.713725,355.373251 L236.914538,355.373251 L236.914538,342.805502 C236.914538,234.265847 296.646046,181.709804 389.561725,181.709804 C428.276592,181.709804 469.203736,189.707463 486.901961,194.277565 L464.77918,307.387299 C453.71779,303.959731 437.125704,301.674685 426.064314,301.674685 C397.304699,301.674685 389.561725,315.384958 389.561725,335.950366 L389.561725,355.373251 L466.991458,355.373251 Z M676.549058,546.760784 L676.549058,794.101961 L524.047059,794.101961 L524.047059,207.811765 L671.023623,207.811765 L671.023623,437.976471 L675.443971,437.976471 C694.506721,381.866667 740.920372,348.658824 803.634057,348.658824 C893.422371,348.658824 951.991979,417.364706 951.717647,513.552941 L951.717647,794.101961 L799.213709,794.101961 L799.213709,546.760784 C799.489981,503.247059 777.388242,476.909804 738.433927,476.909804 C701.137242,476.909804 676.825329,503.247059 676.549058,546.760784 Z" id="fh" fill="#FFFFFF"></path>
        </g>
    </g>
</svg>