<?xml version="1.0" standalone="no"?>
<!DOCTYPE svg PUBLIC "-//W3C//DTD SVG 20010904//EN"
 "http://www.w3.org/TR/2001/REC-SVG-20010904/DTD/svg10.dtd">
<svg version="1.0" xmlns="http://www.w3.org/2000/svg"
 width="700.000000pt" height="700.000000pt" viewBox="0 0 700.000000 700.000000"
 preserveAspectRatio="xMidYMid meet">
<metadata>
Created by potrace 1.11, written by Peter Selinger 2001-2013
</metadata>
<g transform="translate(0.000000,700.000000) scale(0.100000,-0.100000)"
fill="#000000" stroke="none">
<path d="M3215 6989 c-745 -64 -1437 -353 -1995 -835 -551 -475 -938 -1101
-1114 -1799 -73 -291 -101 -529 -101 -860 1 -404 50 -722 171 -1090 254 -772
784 -1445 1476 -1876 447 -278 924 -443 1483 -511 130 -16 600 -16 730 0 451
55 818 163 1195 351 729 364 1312 973 1639 1714 144 325 238 674 283 1052 16
139 16 595 0 730 -61 497 -198 932 -418 1327 -538 964 -1489 1620 -2569 1772
-249 35 -546 45 -780 25z m-607 -1515 c114 -13 333 -51 341 -59 2 -2 -30 -169
-70 -370 l-74 -366 -30 6 c-194 41 -357 32 -418 -23 -41 -36 -57 -91 -57 -199
l0 -103 260 0 260 0 0 -370 0 -370 -260 0 -260 0 -2 -1057 -3 -1058 -512 -3
-513 -2 0 1060 0 1060 -185 0 -185 0 0 370 0 370 183 2 182 3 6 145 c14 327
101 552 281 727 230 223 554 296 1056 237z m1582 -894 c0 -809 0 -814 49 -692
86 211 265 384 480 462 128 47 243 63 401 57 170 -7 292 -37 421 -103 256
-132 420 -351 497 -664 l26 -105 3 -1017 4 -1018 -510 0 -510 0 -3 868 c-3
854 -4 868 -24 929 -43 126 -100 193 -204 242 -50 24 -66 26 -180 26 -114 0
-130 -2 -181 -26 -105 -50 -169 -126 -213 -252 -21 -61 -21 -74 -24 -924 l-3
-863 -509 0 -510 0 0 1915 0 1915 495 0 495 0 0 -750z"/>
</g>
</svg>
